# xmcd
#
# Track frame offsets:
#	150
#	15363
#	28914
#	51047
#	65108
#	75053
#	94168
#	106748
#	115378
#	132666
#	152597
#	174087
#	183496
#	197437
#	208448
#
# Disc length: 2973 seconds
# Revision: 1
# Processed by: cddbd v1.5.2PL0 Copyright (c) Steve Scherf et al.
# Submitted via: dBpowerAMP V12.0
#
DISCID=c20b9b0f
DTITLE=LeAnn Rimes - Today Is Christmas
DYEAR=2015
DGENRE=Christmas
TTITLE0=Today Is Christmas
TTITLE1=We Need A Little Christmas
TTITLE2=That Spirit Of Christmas (w/Aloe Blacc)
TTITLE3=I Still Believe In Santa Claus
TTITLE4=Holly Jolly Christmas-Frosty The Snowman
TTITLE5=Celebrate Me Home (w/Gavin Degraw)
TTITLE6=Must Be Santa
TTITLE7=Christmas Time Is Here
TTITLE8=The Heartache Can Wait
TTITLE9=A Little Drummer Boy
TTITLE10=Joy
TTITLE11=Auld Lang Syne
TTITLE12=Ring Them Bells
TTITLE13=Pretty Paper
TTITLE14=Happy Xmas (War Is Over)
EXTD=
EXTT0=
EXTT1=
EXTT2=
EXTT3=
EXTT4=
EXTT5=
EXTT6=
EXTT7=
EXTT8=
EXTT9=
EXTT10=
EXTT11=
EXTT12=
EXTT13=
EXTT14=
PLAYORDER=
